<?xml version="1.0" encoding="UTF-8"?>
<svg xmlns="http://www.w3.org/2000/svg" xmlns:xlink="http://www.w3.org/1999/xlink" width="375pt" height="374.999991pt" viewBox="0 0 375 374.999991" version="1.2">
<defs>
<clipPath id="clip1">
  <path d="M 251 212 L 319 212 L 319 279.09375 L 251 279.09375 Z M 251 212 "/>
</clipPath>
<clipPath id="clip2">
  <path d="M 27 212 L 95 212 L 95 279.09375 L 27 279.09375 Z M 27 212 "/>
</clipPath>
</defs>
<g id="surface1">
<path style=" stroke:none;fill-rule:nonzero;fill:rgb(22.749329%,56.079102%,72.549438%);fill-opacity:1;" d="M 14.128906 181.796875 C 19.90625 171.214844 33.597656 171.457031 42.339844 164.898438 C 50.617188 158.695312 59.359375 149.449219 64.109375 139.460938 C 74.457031 117.738281 91.378906 104.070312 112.417969 100.234375 C 133.472656 96.417969 195.246094 96.097656 212.191406 102.515625 C 220.695312 105.746094 226.453125 114.320312 236.554688 123.167969 C 252.015625 136.714844 256.875 149.085938 287.019531 157.832031 C 315.257812 166.027344 331.824219 170.644531 346.574219 184.101562 C 361.308594 197.566406 366.632812 223.503906 366.632812 241.089844 L 5.355469 241.089844 C 5.8125 238.992188 5.355469 197.875 14.128906 181.796875 "/>
<path style=" stroke:none;fill-rule:nonzero;fill:rgb(91.369629%,91.369629%,91.369629%);fill-opacity:1;" d="M 360.207031 220.425781 C 359.398438 214.761719 354.433594 199.914062 341.203125 196.984375 C 327.972656 194.054688 322.542969 195.03125 318.464844 193.085938 C 314.390625 191.125 318.804688 216.515625 336.789062 220.425781 C 354.777344 224.328125 361.210938 227.484375 360.207031 220.425781 "/>
<path style=" stroke:none;fill-rule:nonzero;fill:rgb(98.039246%,73.329163%,9.408569%);fill-opacity:1;" d="M 318.464844 193.085938 C 320.816406 194.203125 323.632812 194.363281 328.128906 194.855469 C 330.09375 203.347656 332.347656 211.15625 338.449219 217.199219 C 340.339844 219.070312 342.300781 220.6875 344.324219 222.148438 C 342.066406 221.613281 339.585938 221.035156 336.789062 220.425781 C 318.804688 216.515625 314.390625 191.125 318.464844 193.085938 "/>
<path style=" stroke:none;fill-rule:nonzero;fill:rgb(91.369629%,91.369629%,91.369629%);fill-opacity:1;" d="M 12.039062 186.835938 C 16.441406 187.101562 22.261719 188.269531 23.269531 192.664062 C 24.621094 198.570312 24.128906 213.496094 22.335938 218.773438 C 20.882812 223.027344 13.554688 225.582031 6.082031 224.394531 C 6.246094 213.925781 7.253906 196.1875 12.039062 186.835938 "/>
<path style=" stroke:none;fill-rule:nonzero;fill:rgb(92.939758%,10.978699%,14.118958%);fill-opacity:1;" d="M 21.628906 212.457031 C 16.9375 212.261719 11.292969 211.820312 6.65625 211.886719 C 7.222656 200.929688 9.308594 193.210938 11.171875 188.71875 C 18.996094 188.972656 23.492188 199.664062 21.628906 212.457031 "/>
<path style=" stroke:none;fill-rule:nonzero;fill:rgb(95.689392%,44.309998%,14.898682%);fill-opacity:1;" d="M 20.914062 217.917969 C 20.855469 218.132812 20.785156 218.363281 20.71875 218.558594 C 19.40625 222.230469 12.84375 224.421875 6.105469 223.417969 C 6.132812 221.691406 6.199219 219.664062 6.300781 217.589844 C 11.113281 217.351562 16.070312 217.667969 20.914062 217.917969 "/>
<path style=" stroke:none;fill-rule:nonzero;fill:rgb(10.978699%,25.878906%,34.899902%);fill-opacity:1;" d="M 217.027344 164.132812 C 185.304688 163.007812 137.085938 163.644531 97.136719 164.183594 C 80.195312 164.410156 66.515625 161 68.761719 152.460938 C 70.554688 145.558594 73.347656 139.984375 76.78125 133.921875 C 83.96875 121.238281 97.875 108.746094 111.632812 106.988281 C 140.960938 103.261719 173.941406 104.101562 194.453125 106.324219 C 208.164062 107.816406 218.292969 116.152344 232.664062 129.527344 C 241.214844 137.476562 254.519531 147.929688 256.042969 154.386719 C 257.304688 159.703125 248.734375 165.261719 217.027344 164.132812 "/>
<path style=" stroke:none;fill-rule:nonzero;fill:rgb(56.079102%,85.488892%,88.62915%);fill-opacity:1;" d="M 213.351562 159.378906 C 183.722656 158.332031 138.695312 158.9375 101.367188 159.425781 C 85.554688 159.644531 85.941406 155.296875 93.734375 133.585938 C 102.0625 110.339844 102.0625 110.339844 114.917969 108.695312 C 142.304688 105.21875 173.117188 106.003906 192.261719 108.09375 C 205.0625 109.472656 212.6875 117.296875 226.117188 129.78125 C 234.09375 137.203125 242.695312 144.144531 244.132812 150.167969 C 245.304688 155.140625 242.972656 160.441406 213.351562 159.378906 "/>
<path style=" stroke:none;fill-rule:nonzero;fill:rgb(10.978699%,25.878906%,34.899902%);fill-opacity:1;" d="M 154.25 159.519531 L 174.648438 160.226562 L 162.144531 105.308594 L 154.25 105.308594 L 154.25 159.519531 "/>
<path style=" stroke:none;fill-rule:nonzero;fill:rgb(10.978699%,25.878906%,34.899902%);fill-opacity:1;" d="M 83.753906 228.976562 C 96.554688 228.902344 294.300781 227.585938 308.941406 227.757812 C 352.769531 228.25 363.546875 226 368.703125 231.304688 C 371.640625 234.316406 374.738281 245.957031 366.1875 245.96875 L 5.355469 245.96875 C 3.320312 245.96875 1.238281 244.007812 1.074219 241.601562 C 0.203125 228.566406 4.214844 227.359375 13.945312 227.90625 C 19.382812 228.214844 28.222656 229.320312 83.753906 228.976562 "/>
<path style=" stroke:none;fill-rule:nonzero;fill:rgb(100%,100%,100%);fill-opacity:1;" d="M 204.984375 112.234375 L 197.867188 158.992188 C 195.117188 158.945312 192.296875 158.914062 189.40625 158.886719 L 197.019531 108.960938 C 199.847656 109.6875 202.449219 110.792969 204.984375 112.234375 "/>
<path style=" stroke:none;fill-rule:nonzero;fill:rgb(100%,100%,100%);fill-opacity:1;" d="M 192.261719 108.09375 C 192.675781 108.125 193.0625 108.195312 193.453125 108.253906 L 185.730469 158.855469 C 184.332031 158.84375 182.925781 158.832031 181.503906 158.832031 L 189.28125 107.785156 C 190.308594 107.886719 191.304688 107.980469 192.261719 108.09375 "/>
<path style=" stroke:none;fill-rule:nonzero;fill:rgb(100%,100%,100%);fill-opacity:1;" d="M 138.453125 106.722656 L 130.480469 159.058594 C 127.632812 159.09375 124.8125 159.128906 121.992188 159.164062 L 129.910156 107.226562 C 132.753906 107.019531 135.609375 106.863281 138.453125 106.722656 "/>
<path style=" stroke:none;fill-rule:nonzero;fill:rgb(100%,100%,100%);fill-opacity:1;" d="M 121.886719 107.921875 C 123.320312 107.785156 124.742188 107.648438 126.191406 107.519531 L 118.300781 159.210938 C 116.882812 159.222656 115.472656 159.242188 114.054688 159.253906 L 121.886719 107.921875 "/>
<path style=" stroke:none;fill-rule:nonzero;fill:rgb(5.488586%,12.159729%,16.859436%);fill-opacity:1;" d="M 242.753906 245.957031 L 326.957031 245.957031 C 326.957031 222.664062 308.109375 203.769531 284.859375 203.769531 C 261.609375 203.769531 242.753906 222.664062 242.753906 245.957031 "/>
<g clip-path="url(#clip1)" clip-rule="nonzero">
<path style=" stroke:none;fill-rule:nonzero;fill:rgb(18.03894%,16.468811%,16.859436%);fill-opacity:1;" d="M 251.582031 245.957031 C 251.582031 264.371094 266.476562 279.308594 284.859375 279.308594 C 303.230469 279.308594 318.128906 264.371094 318.128906 245.957031 C 318.128906 227.542969 303.230469 212.617188 284.859375 212.617188 C 266.476562 212.617188 251.582031 227.542969 251.582031 245.957031 "/>
</g>
<path style=" stroke:none;fill-rule:nonzero;fill:rgb(39.608765%,38.42926%,38.819885%);fill-opacity:1;" d="M 261.320312 245.957031 C 261.320312 258.992188 271.859375 269.546875 284.859375 269.546875 C 297.851562 269.546875 308.382812 258.992188 308.382812 245.957031 C 308.382812 232.933594 297.851562 222.378906 284.859375 222.378906 C 271.859375 222.378906 261.320312 232.933594 261.320312 245.957031 "/>
<path style=" stroke:none;fill-rule:nonzero;fill:rgb(74.119568%,73.728943%,73.728943%);fill-opacity:1;" d="M 264.316406 245.957031 L 264.128906 245.957031 C 264.128906 257.429688 273.40625 266.730469 284.859375 266.730469 C 296.304688 266.730469 305.582031 257.429688 305.582031 245.957031 C 305.582031 234.484375 296.304688 225.195312 284.859375 225.195312 C 273.40625 225.195312 264.128906 234.484375 264.128906 245.957031 L 264.503906 245.957031 C 264.503906 240.324219 266.78125 235.230469 270.464844 231.542969 C 274.144531 227.855469 279.234375 225.574219 284.859375 225.574219 C 290.476562 225.574219 295.5625 227.855469 299.246094 231.542969 C 302.929688 235.230469 305.207031 240.324219 305.207031 245.957031 C 305.207031 251.59375 302.929688 256.6875 299.246094 260.378906 C 295.5625 264.066406 290.476562 266.351562 284.859375 266.351562 C 279.234375 266.351562 274.144531 264.066406 270.464844 260.378906 C 266.78125 256.6875 264.503906 251.59375 264.503906 245.957031 L 264.316406 245.957031 "/>
<path style=" stroke:none;fill-rule:nonzero;fill:rgb(74.119568%,73.728943%,73.728943%);fill-opacity:1;" d="M 282.976562 266.539062 L 286.726562 266.539062 L 286.726562 225.386719 L 282.976562 225.386719 L 282.976562 266.539062 "/>
<path style=" stroke:none;fill-rule:nonzero;fill:rgb(74.119568%,73.728943%,73.728943%);fill-opacity:1;" d="M 264.316406 244.074219 L 264.316406 247.851562 L 305.390625 247.851562 L 305.390625 244.074219 L 264.316406 244.074219 "/>
<path style=" stroke:none;fill-rule:nonzero;fill:rgb(74.119568%,73.728943%,73.728943%);fill-opacity:1;" d="M 269 259.183594 L 271.667969 261.851562 L 300.707031 232.742188 L 298.054688 230.074219 L 269 259.183594 "/>
<path style=" stroke:none;fill-rule:nonzero;fill:rgb(74.119568%,73.728943%,73.728943%);fill-opacity:1;" d="M 271.667969 230.074219 L 269 232.742188 L 298.054688 261.851562 L 300.707031 259.183594 L 271.667969 230.074219 "/>
<path style=" stroke:none;fill-rule:nonzero;fill:rgb(74.119568%,73.728943%,73.728943%);fill-opacity:1;" d="M 276.613281 245.957031 C 276.613281 250.53125 280.304688 254.222656 284.859375 254.222656 C 289.410156 254.222656 293.101562 250.53125 293.101562 245.957031 C 293.101562 241.394531 289.410156 237.703125 284.859375 237.703125 C 280.304688 237.703125 276.613281 241.394531 276.613281 245.957031 "/>
<path style=" stroke:none;fill-rule:nonzero;fill:rgb(18.03894%,16.468811%,16.859436%);fill-opacity:1;" d="M 284.082031 242.980469 C 284.5625 243.460938 285.335938 243.460938 285.8125 242.980469 C 286.289062 242.5 286.289062 241.726562 285.8125 241.25 C 285.335938 240.78125 284.5625 240.78125 284.082031 241.25 C 283.613281 241.726562 283.613281 242.5 284.082031 242.980469 "/>
<path style=" stroke:none;fill-rule:nonzero;fill:rgb(18.03894%,16.468811%,16.859436%);fill-opacity:1;" d="M 280.15625 246.917969 C 280.628906 247.390625 281.40625 247.390625 281.882812 246.917969 C 282.363281 246.449219 282.363281 245.671875 281.882812 245.191406 C 281.40625 244.710938 280.628906 244.710938 280.15625 245.191406 C 279.675781 245.671875 279.675781 246.449219 280.15625 246.917969 "/>
<path style=" stroke:none;fill-rule:nonzero;fill:rgb(18.03894%,16.468811%,16.859436%);fill-opacity:1;" d="M 287.824219 246.734375 C 288.296875 247.214844 289.074219 247.214844 289.550781 246.734375 C 290.03125 246.253906 290.03125 245.476562 289.550781 245 C 289.074219 244.535156 288.296875 244.535156 287.824219 245 C 287.34375 245.476562 287.34375 246.253906 287.824219 246.734375 "/>
<path style=" stroke:none;fill-rule:nonzero;fill:rgb(18.03894%,16.468811%,16.859436%);fill-opacity:1;" d="M 283.898438 250.664062 C 284.378906 251.144531 285.152344 251.144531 285.628906 250.664062 C 286.105469 250.1875 286.105469 249.414062 285.628906 248.945312 C 285.152344 248.464844 284.378906 248.464844 283.898438 248.945312 C 283.421875 249.414062 283.421875 250.1875 283.898438 250.664062 "/>
<path style=" stroke:none;fill-rule:nonzero;fill:rgb(5.488586%,12.159729%,16.859436%);fill-opacity:1;" d="M 18.929688 245.957031 L 103.144531 245.957031 C 103.144531 222.664062 84.292969 203.769531 61.042969 203.769531 C 37.789062 203.769531 18.929688 222.664062 18.929688 245.957031 "/>
<g clip-path="url(#clip2)" clip-rule="nonzero">
<path style=" stroke:none;fill-rule:nonzero;fill:rgb(18.03894%,16.468811%,16.859436%);fill-opacity:1;" d="M 27.757812 245.957031 C 27.757812 264.371094 42.667969 279.308594 61.042969 279.308594 C 79.417969 279.308594 94.3125 264.371094 94.3125 245.957031 C 94.3125 227.542969 79.417969 212.617188 61.042969 212.617188 C 42.667969 212.617188 27.757812 227.542969 27.757812 245.957031 "/>
</g>
<path style=" stroke:none;fill-rule:nonzero;fill:rgb(39.608765%,38.42926%,38.819885%);fill-opacity:1;" d="M 37.5 245.957031 C 37.5 258.992188 48.035156 269.546875 61.042969 269.546875 C 74.039062 269.546875 84.574219 258.992188 84.574219 245.957031 C 84.574219 232.933594 74.039062 222.378906 61.042969 222.378906 C 48.035156 222.378906 37.5 232.933594 37.5 245.957031 "/>
<path style=" stroke:none;fill-rule:nonzero;fill:rgb(74.119568%,73.728943%,73.728943%);fill-opacity:1;" d="M 40.5 245.957031 L 40.316406 245.957031 C 40.316406 257.429688 49.59375 266.730469 61.042969 266.730469 C 72.484375 266.730469 81.769531 257.429688 81.769531 245.957031 C 81.769531 234.484375 72.484375 225.195312 61.042969 225.195312 C 49.59375 225.195312 40.316406 234.484375 40.316406 245.957031 L 40.691406 245.957031 C 40.691406 240.324219 42.96875 235.230469 46.652344 231.542969 C 50.335938 227.855469 55.421875 225.574219 61.042969 225.574219 C 66.660156 225.574219 71.746094 227.855469 75.429688 231.542969 C 79.113281 235.230469 81.394531 240.324219 81.394531 245.957031 C 81.394531 251.59375 79.113281 256.6875 75.429688 260.378906 C 71.746094 264.066406 66.660156 266.351562 61.042969 266.351562 C 55.421875 266.351562 50.335938 264.066406 46.652344 260.378906 C 42.96875 256.6875 40.691406 251.59375 40.691406 245.957031 L 40.5 245.957031 "/>
<path style=" stroke:none;fill-rule:nonzero;fill:rgb(74.119568%,73.728943%,73.728943%);fill-opacity:1;" d="M 59.15625 266.539062 L 62.921875 266.539062 L 62.921875 225.386719 L 59.15625 225.386719 L 59.15625 266.539062 "/>
<path style=" stroke:none;fill-rule:nonzero;fill:rgb(74.119568%,73.728943%,73.728943%);fill-opacity:1;" d="M 40.5 244.074219 L 40.5 247.851562 L 81.582031 247.851562 L 81.582031 244.074219 L 40.5 244.074219 "/>
<path style=" stroke:none;fill-rule:nonzero;fill:rgb(74.119568%,73.728943%,73.728943%);fill-opacity:1;" d="M 45.179688 259.183594 L 47.839844 261.851562 L 76.898438 232.742188 L 74.230469 230.074219 L 45.179688 259.183594 "/>
<path style=" stroke:none;fill-rule:nonzero;fill:rgb(74.119568%,73.728943%,73.728943%);fill-opacity:1;" d="M 47.839844 230.074219 L 45.179688 232.742188 L 74.230469 261.851562 L 76.898438 259.183594 L 47.839844 230.074219 "/>
<path style=" stroke:none;fill-rule:nonzero;fill:rgb(74.119568%,73.728943%,73.728943%);fill-opacity:1;" d="M 52.796875 245.957031 C 52.796875 250.53125 56.496094 254.222656 61.042969 254.222656 C 65.597656 254.222656 69.285156 250.53125 69.285156 245.957031 C 69.285156 241.394531 65.597656 237.703125 61.042969 237.703125 C 56.496094 237.703125 52.796875 241.394531 52.796875 245.957031 "/>
<path style=" stroke:none;fill-rule:nonzero;fill:rgb(18.03894%,16.468811%,16.859436%);fill-opacity:1;" d="M 60.273438 242.980469 C 60.746094 243.460938 61.519531 243.460938 62.003906 242.980469 C 62.480469 242.5 62.480469 241.726562 62.003906 241.25 C 61.519531 240.78125 60.746094 240.78125 60.273438 241.25 C 59.796875 241.726562 59.796875 242.5 60.273438 242.980469 "/>
<path style=" stroke:none;fill-rule:nonzero;fill:rgb(18.03894%,16.468811%,16.859436%);fill-opacity:1;" d="M 56.34375 246.917969 C 56.824219 247.390625 57.585938 247.390625 58.066406 246.917969 C 58.539062 246.449219 58.539062 245.671875 58.066406 245.191406 C 57.585938 244.710938 56.824219 244.710938 56.34375 245.191406 C 55.863281 245.671875 55.863281 246.449219 56.34375 246.917969 "/>
<path style=" stroke:none;fill-rule:nonzero;fill:rgb(18.03894%,16.468811%,16.859436%);fill-opacity:1;" d="M 64.015625 246.734375 C 64.492188 247.214844 65.269531 247.214844 65.742188 246.734375 C 66.210938 246.253906 66.210938 245.476562 65.742188 245 C 65.269531 244.535156 64.492188 244.535156 64.015625 245 C 63.53125 245.476562 63.53125 246.253906 64.015625 246.734375 "/>
<path style=" stroke:none;fill-rule:nonzero;fill:rgb(18.03894%,16.468811%,16.859436%);fill-opacity:1;" d="M 60.085938 250.664062 C 60.566406 251.144531 61.324219 251.144531 61.808594 250.664062 C 62.285156 250.1875 62.285156 249.414062 61.808594 248.945312 C 61.324219 248.464844 60.566406 248.464844 60.085938 248.945312 C 59.613281 249.414062 59.613281 250.1875 60.085938 250.664062 "/>
<path style=" stroke:none;fill-rule:nonzero;fill:rgb(10.978699%,25.878906%,34.899902%);fill-opacity:1;" d="M 174.648438 177.761719 C 174.648438 179.972656 176.222656 181.75 178.144531 181.75 L 188.65625 181.75 C 190.578125 181.75 192.152344 179.972656 192.152344 177.761719 C 192.152344 175.558594 190.578125 173.769531 188.65625 173.769531 L 178.144531 173.769531 C 176.222656 173.769531 174.648438 175.558594 174.648438 177.761719 "/>
<path style=" stroke:none;fill-rule:nonzero;fill:rgb(10.978699%,25.878906%,34.899902%);fill-opacity:1;" d="M 89.710938 177.761719 C 89.710938 179.972656 91.269531 181.75 93.199219 181.75 L 103.699219 181.75 C 105.628906 181.75 107.199219 179.972656 107.199219 177.761719 C 107.199219 175.558594 105.628906 173.769531 103.699219 173.769531 L 93.199219 173.769531 C 91.269531 173.769531 89.710938 175.558594 89.710938 177.761719 "/>
</g>
</svg>
