<?xml version="1.0" encoding="iso-8859-1"?>
<!-- Generator: Adobe Illustrator 18.0.0, SVG Export Plug-In . SVG Version: 6.00 Build 0)  -->
<!DOCTYPE svg PUBLIC "-//W3C//DTD SVG 1.1//EN" "http://www.w3.org/Graphics/SVG/1.1/DTD/svg11.dtd">
<svg version="1.1" id="Capa_1" xmlns="http://www.w3.org/2000/svg" xmlns:xlink="http://www.w3.org/1999/xlink" x="0px" y="0px"
	 viewBox="0 0 60.001 60.001" style="enable-background:new 0 0 60.001 60.001;" xml:space="preserve">
<g>
	<path d="M59.272,7.199c-0.916-1.763-2.463-3.002-4.355-3.488c-1.873-0.481-3.86-0.147-5.459,0.918l-6.595,4.396
		C42.597,9.204,42.305,9.339,42,9.428c-0.023-0.757-0.373-1.478-0.968-1.986c-9.236-7.914-12.949-7.917-22.068,0.005
		c-0.591,0.515-0.938,1.232-0.962,1.981c-0.305-0.089-0.598-0.224-0.865-0.402l-6.374-4.25c-2.729-1.82-6.836-1.407-8.969,0.902
		C0.638,6.932,0,8.564,0,10.272v2.912c0,1.761,0.673,3.431,1.894,4.701c0.343,0.357,0.711,0.702,1.116,1.048
		c0.081,2.26,2.483,4.557,5.895,5.517c2.813,0.79,5.599,0.458,7.16-0.81c0.428,0.043,0.823,0.064,1.2,0.064
		c1.664,0,3.331-0.326,4.837-0.934l0.554,1.773c-0.435,1.26-0.654,2.588-0.654,3.951c0,3.16,0.643,5.597,1.912,7.255
		c-0.076,0.518-0.022,0.994,0.026,1.428c0.029,0.257,0.062,0.524,0.062,0.817c0,1.322,0.278,2.622,0.805,3.759
		c0.064,0.138-0.01,0.273-0.046,0.327c-0.496,0.738-0.759,1.573-0.759,2.414c0,0.631,0.146,1.251,0.436,1.844
		c0.05,0.101,0.05,0.212,0.001,0.312c-0.29,0.594-0.437,1.214-0.437,1.845s0.146,1.251,0.436,1.844
		c0.05,0.101,0.05,0.212,0.001,0.312c-0.29,0.594-0.437,1.214-0.437,1.845v6h2v-6c0-0.324,0.079-0.649,0.234-0.969
		c0.319-0.655,0.319-1.407-0.001-2.063c-0.154-0.318-0.233-0.644-0.233-0.968s0.079-0.649,0.234-0.969
		c0.319-0.655,0.319-1.407-0.001-2.063c-0.154-0.318-0.233-0.644-0.233-0.968c0-0.448,0.141-0.885,0.418-1.298
		c0.468-0.692,0.543-1.546,0.202-2.284c-0.405-0.875-0.62-1.884-0.62-2.918c0-0.327-0.033-0.625-0.065-0.914l0.618,0.309
		c0.144,0.071,0.296,0.105,0.446,0.105c0.367,0,0.72-0.202,0.896-0.553c0.247-0.494,0.047-1.095-0.447-1.342l-1.803-0.901
		c-1.073-1.273-1.644-3.408-1.644-6.204c0-1.241,0.217-2.444,0.645-3.575l0.122-0.322l-1.418-4.536l-1.246,0.519
		c-1.494,0.735-3.168,1.124-4.839,1.124c-0.423,0-0.885-0.033-1.411-0.103l-0.513-0.067l-0.351,0.379
		c-0.792,0.856-2.952,1.341-5.545,0.61c-2.878-0.811-4.611-2.666-4.424-3.892l0.088-0.57l-0.45-0.36
		C4.16,17.3,3.728,16.907,3.336,16.499C2.475,15.603,2,14.425,2,13.184v-2.912c0-1.204,0.449-2.354,1.265-3.238
		c1.477-1.6,4.464-1.878,6.389-0.594l6.373,4.25c0.999,0.667,2.206,0.958,3.401,0.833l1.21-0.131l-0.625-2.001
		c0.03-0.158,0.123-0.313,0.264-0.435c8.395-7.291,10.939-7.292,19.455,0.005c0.138,0.118,0.229,0.27,0.259,0.429l-0.626,2.002
		l1.21,0.131c1.2,0.129,2.402-0.166,3.399-0.833l6.594-4.396c1.126-0.751,2.531-0.986,3.851-0.646
		c1.336,0.344,2.43,1.223,3.079,2.474c0.33,0.634,0.504,1.414,0.504,2.258v2.805c0,1.22-0.436,2.356-1.226,3.2
		c-0.586,0.625-1.267,1.218-2.023,1.763l-0.274,0.197l-0.099,0.323c-0.389,1.278-1.683,2.663-3.377,3.614
		c-2.737,1.534-5.341,1.368-5.963,0.26C45,22.47,44.971,22.396,44.945,22.32l-0.254-0.764l-0.801,0.086
		c-2.102,0.224-4.147-0.154-6.05-1.087l-1.188-0.495l-1.42,4.538l0.122,0.323c0.429,1.13,0.646,2.332,0.646,3.574
		c0,2.796-0.571,4.931-1.644,6.204l-1.803,0.901c-0.494,0.247-0.694,0.848-0.447,1.342c0.176,0.351,0.528,0.553,0.896,0.553
		c0.15,0,0.303-0.034,0.446-0.105l0.618-0.309c-0.032,0.29-0.065,0.587-0.065,0.914c0,1.034-0.215,2.043-0.621,2.919
		c-0.34,0.737-0.265,1.591,0.202,2.282c0.278,0.414,0.419,0.851,0.419,1.299c0,0.324-0.079,0.649-0.234,0.969
		c-0.319,0.655-0.319,1.407,0.001,2.063c0.154,0.318,0.233,0.644,0.233,0.968s-0.079,0.649-0.234,0.969
		c-0.319,0.655-0.319,1.407,0.001,2.063c0.154,0.318,0.233,0.644,0.233,0.968v6h2v-6c0-0.631-0.146-1.251-0.436-1.844
		c-0.05-0.101-0.05-0.212-0.001-0.312c0.29-0.594,0.437-1.214,0.437-1.845s-0.146-1.251-0.436-1.844
		c-0.05-0.101-0.05-0.212-0.001-0.312c0.29-0.594,0.437-1.214,0.437-1.845c0-0.841-0.263-1.676-0.76-2.415
		c-0.035-0.053-0.109-0.188-0.046-0.325c0.527-1.138,0.806-2.438,0.806-3.76c0-0.293,0.032-0.561,0.062-0.817
		c0.049-0.434,0.103-0.91,0.026-1.428c1.27-1.658,1.912-4.095,1.912-7.255c0-1.364-0.22-2.692-0.655-3.952l0.556-1.773
		c1.732,0.694,3.59,1.015,5.494,0.917c1.377,2.135,5.09,2.298,8.585,0.339c2.025-1.137,3.57-2.778,4.2-4.446
		c0.759-0.567,1.448-1.182,2.054-1.828c1.14-1.216,1.767-2.838,1.767-4.567v-2.805C60.001,9.199,59.756,8.129,59.272,7.199z"/>
	<path d="M14.918,12.354L8.325,7.958c-1.099-0.735-2.573-0.59-3.512,0.348C4.289,8.832,4,9.531,4,10.272v2.912
		c0,0.721,0.275,1.405,0.774,1.926c0.613,0.639,1.335,1.219,2.206,1.773l0.298,0.189l0.352-0.039
		c1.015-0.117,2.148-0.009,3.275,0.31c1.313,0.369,2.499,0.997,3.339,1.77l0.197,0.182l0.895,0.198
		c0.637,0.143,1.284,0.212,1.931,0.212c1.38,0,2.755-0.319,4.002-0.942l1.48-0.618l-1.541-4.929l-0.887,0.184
		C18.434,13.788,16.517,13.419,14.918,12.354z M15.771,17.54l-0.38-0.084c-1.047-0.896-2.437-1.615-3.944-2.039
		c-1.243-0.35-2.504-0.488-3.673-0.405c-0.608-0.41-1.12-0.833-1.556-1.287C6.077,13.578,6,13.386,6,13.184v-2.912
		C6,10.06,6.079,9.868,6.228,9.72c0.265-0.264,0.68-0.305,0.987-0.099l6.594,4.396c1.793,1.195,3.9,1.711,6.019,1.481L20.3,17.01
		C18.896,17.691,17.29,17.879,15.771,17.54z"/>
	<path d="M42.734,19.704c0.646,0,1.294-0.069,1.93-0.211l1.659-0.369l0.2-0.19c0.538-0.51,1.159-0.963,1.847-1.349
		c1.609-0.902,3.344-1.294,4.645-1.042l0.438,0.085l0.354-0.269c0.54-0.408,1.005-0.817,1.42-1.25
		c0.499-0.521,0.774-1.205,0.774-1.926v-2.912c0-0.741-0.289-1.439-0.815-1.968c-0.935-0.933-2.411-1.08-3.509-0.347l-6.594,4.396
		c-1.598,1.065-3.52,1.435-5.402,1.045l-0.887-0.184l-1.541,4.928l1.479,0.619C39.979,19.386,41.354,19.704,42.734,19.704z
		 M40.175,15.499c2.112,0.226,4.226-0.286,6.018-1.481l6.595-4.397c0.306-0.204,0.722-0.166,0.984,0.098
		c0.15,0.15,0.229,0.342,0.229,0.554v2.912c0,0.202-0.077,0.395-0.218,0.542c-0.257,0.268-0.539,0.525-0.856,0.783
		c-1.685-0.186-3.671,0.287-5.535,1.332c-0.744,0.417-1.428,0.904-2.035,1.449l-1.127,0.251c-1.521,0.336-3.124,0.148-4.527-0.531
		L40.175,15.499z"/>
	<path d="M33.001,28.495c0-0.877-0.151-1.723-0.45-2.515c-0.314-0.832-0.342-1.758-0.077-2.607l0.988-3.161
		c0.167-0.532,0.437-1.015,0.802-1.435l0.287-0.331l-0.048-0.436c-0.062-0.55-0.008-1.101,0.158-1.634l0.998-3.192
		c0.168-0.535,0.438-1.02,0.807-1.44l0.289-0.331l-0.048-0.437c-0.009-0.078-0.016-0.156-0.02-0.235l-0.022-0.444l-0.345-0.281
		c-2.989-2.435-4.952-3.521-6.364-3.521c-1.403,0-3.34,1.082-6.278,3.508l-0.342,0.282l-0.021,0.442
		c-0.004,0.083-0.011,0.164-0.021,0.246l-0.049,0.438l0.29,0.332c0.367,0.421,0.639,0.905,0.807,1.44l0.997,3.19
		c0.167,0.535,0.221,1.086,0.159,1.636l-0.048,0.436l0.287,0.331c0.365,0.42,0.635,0.902,0.802,1.434l0.988,3.162
		c0.265,0.85,0.237,1.775-0.077,2.607c-0.299,0.792-0.45,1.638-0.45,2.515c0,2.904,0.667,3.978,0.954,4.304l1.528-1.288
		c-0.005-0.007-0.482-0.712-0.482-3.016c0-0.635,0.108-1.243,0.321-1.808c0.472-1.247,0.513-2.636,0.114-3.91l-0.988-3.163
		c-0.206-0.658-0.518-1.267-0.929-1.813c0.026-0.682-0.064-1.359-0.271-2.021l-0.998-3.192c-0.169-0.541-0.41-1.048-0.718-1.515
		c2.793-2.229,3.964-2.577,4.423-2.577c0.466,0,1.656,0.351,4.503,2.592c-0.304,0.463-0.541,0.965-0.708,1.5l-0.999,3.194
		c-0.205,0.66-0.296,1.338-0.27,2.02c-0.411,0.547-0.723,1.155-0.929,1.814l-0.988,3.162c-0.398,1.274-0.357,2.663,0.114,3.91
		c0.213,0.564,0.321,1.173,0.321,1.808c0,2.264-0.462,2.984-0.457,2.984c0,0,0-0.001,0.001-0.001l1.502,1.32
		C32.334,32.473,33.001,31.4,33.001,28.495z"/>
</g>
<g>
</g>
<g>
</g>
<g>
</g>
<g>
</g>
<g>
</g>
<g>
</g>
<g>
</g>
<g>
</g>
<g>
</g>
<g>
</g>
<g>
</g>
<g>
</g>
<g>
</g>
<g>
</g>
<g>
</g>
</svg>
